# Blender v2.79 (sub 4) OBJ File: 'wooden_table.blend'
# www.blender.org
o wooden_table_Cube.004
v 0.868353 0.158600 -0.040619
v 0.868353 0.097428 -0.040619
v 0.868353 0.158600 0.040617
v 0.868353 0.097428 0.040617
v 0.839416 0.177210 -0.040619
v 0.839416 0.177210 0.040617
v -0.836469 0.027634 0.222999
v -0.654901 0.000000 -0.222999
v -0.836469 0.000000 0.222999
v -0.836469 0.000000 -0.222999
v -0.836469 0.144439 -0.278749
v -0.836469 0.144439 0.278749
v -0.654901 0.144439 0.278749
v -0.673389 0.144439 0.167431
v -0.673389 0.144439 -0.167431
v -0.673389 0.668982 0.167431
v -0.673389 0.668982 -0.167431
v -0.817981 0.668982 -0.167431
v -0.817981 0.144439 -0.167431
v -0.817981 0.668982 0.167431
v -0.817981 0.144439 0.167431
v -0.654901 0.067112 0.371665
v -0.654901 0.067112 -0.371665
v -0.836469 0.067112 -0.371665
v -0.836469 0.067112 0.371665
v -0.654901 0.090737 0.306534
v -0.868353 0.158600 -0.040619
v -0.868353 0.097428 -0.040619
v -0.654901 0.000000 0.371665
v -0.868353 0.158600 0.040617
v -0.868353 0.097428 0.040617
v -0.654901 0.090737 -0.306534
v -0.654901 0.000000 -0.371665
v -0.836469 0.000000 0.371665
v -0.836469 0.090737 -0.306534
v -0.836469 0.000000 -0.371665
v -0.836469 0.090737 0.306534
v -0.654901 0.144439 -0.278749
v -0.839416 0.177210 -0.040619
v -0.839416 0.177210 0.040617
v 0.836469 0.144439 -0.278749
v 0.654901 0.090737 0.306534
v 1.000000 0.668982 -0.450000
v 1.000000 0.668982 0.450000
v 1.000000 0.760000 -0.450000
v 1.000000 0.760000 0.449658
v -1.000000 0.668982 -0.450000
v -1.000000 0.668982 0.450000
v -1.000000 0.760000 -0.450000
v -1.000000 0.760000 0.449658
v 0.654901 0.000000 -0.371665
v 0.654901 0.090737 -0.306534
v 0.654901 0.000000 0.371665
v 0.836469 0.000000 -0.371665
v 0.836469 0.090737 -0.306534
v 0.836469 0.000000 0.371665
v 0.836469 0.090737 0.306534
v 0.654901 0.067112 0.371665
v 0.654901 0.067112 -0.371665
v 0.836469 0.067112 -0.371665
v 0.836469 0.067112 0.371665
v 0.673389 0.144439 0.167431
v 0.673389 0.668982 0.167431
v 0.673389 0.144439 -0.167431
v 0.673389 0.668982 -0.167431
v 0.817981 0.668982 -0.167431
v 0.817981 0.668982 0.167431
v 0.817981 0.144439 -0.167431
v 0.817981 0.144439 0.167431
v 0.836469 0.144439 0.278749
v 0.654901 0.144439 0.278749
v 0.654901 0.144439 -0.278749
v 0.654901 0.000000 -0.222999
v 0.654901 0.000000 0.222999
v 0.836469 0.000000 -0.222999
v 0.654901 0.027634 0.222999
v 0.654901 0.027634 -0.222999
v 0.836469 0.000000 0.222999
v 0.836469 0.027634 -0.222999
v 0.836469 0.027634 0.222999
v -0.836469 0.027634 -0.222999
v -0.654901 0.000000 0.222999
v -0.654901 0.027634 -0.222999
v -0.654901 0.027634 0.222999
vt 0.039005 0.064669
vt 0.018332 0.092122
vt 0.018332 0.064669
vt 0.050632 0.064669
vt 0.617990 0.092122
vt 0.050632 0.092122
vt 0.039005 0.092122
vt 0.617990 0.064669
vt 0.040853 0.037706
vt 0.627770 0.037706
vt 0.040853 0.058379
vt 0.627770 0.010252
vt 0.040853 0.010252
vt 0.040853 0.098412
vt 0.040853 0.119085
vt 0.908599 0.868332
vt 0.900367 0.845636
vt 0.922356 0.816528
vt 0.650291 0.092122
vt 0.629618 0.064669
vt 0.650290 0.064669
vt 0.777681 0.816527
vt 0.791438 0.868332
vt 0.768052 0.868332
vt 0.768052 0.609309
vt 0.791438 0.609309
vt 0.777681 0.661113
vt 0.799670 0.632004
vt 0.881654 0.835954
vt 0.900367 0.632005
vt 0.922357 0.661114
vt 0.881654 0.641686
vt 0.908600 0.609309
vt 0.931986 0.609309
vt 0.824826 0.797164
vt 0.875211 0.797164
vt 0.202210 0.132188
vt 0.153346 0.309457
vt 0.153346 0.132188
vt 0.040179 0.132188
vt 0.315377 0.309457
vt 0.315377 0.132188
vt 0.931986 0.868332
vt 0.768052 0.816527
vt 0.881654 0.620617
vt 0.818383 0.596474
vt 0.881654 0.596474
vt 0.818383 0.881167
vt 0.881653 0.904553
vt 0.818383 0.904553
vt 0.985626 0.661114
vt 0.985626 0.816528
vt 0.818384 0.641687
vt 0.824826 0.680477
vt 0.931986 0.661114
vt 0.818384 0.857024
vt 0.881653 0.857024
vt 0.818383 0.956357
vt 0.881653 0.965986
vt 0.818383 0.965986
vt 0.818384 0.573088
vt 0.881654 0.573088
vt 0.629618 0.092122
vt 0.627770 0.119085
vt 0.627770 0.098412
vt 0.627770 0.058379
vt 0.881654 0.881167
vt 0.818384 0.620617
vt 0.799670 0.845636
vt 0.875211 0.680477
vt 0.881654 0.511654
vt 0.818383 0.521283
vt 0.818384 0.511653
vt 0.039325 0.656451
vt 0.008564 0.960490
vt 0.008565 0.656335
vt 0.715224 0.991250
vt 0.039324 0.960490
vt 0.715224 0.960491
vt 0.745984 0.656336
vt 0.715224 0.656452
vt 0.039325 0.625692
vt 0.653711 0.530198
vt 0.715224 0.321537
vt 0.715224 0.625692
vt 0.818383 0.835954
vt 0.364241 0.132188
vt 0.881654 0.521283
vt 0.931986 0.816528
vt 0.818383 0.165512
vt 0.824826 0.320989
vt 0.818384 0.359780
vt 0.768052 0.661114
vt 0.881653 0.956357
vt 0.881653 0.045109
vt 0.818384 0.096914
vt 0.818384 0.045109
vt 0.922356 0.184939
vt 0.881654 0.359780
vt 0.881653 0.165512
vt 0.922356 0.340353
vt 0.931986 0.340353
vt 0.931986 0.392158
vt 0.900367 0.369462
vt 0.777681 0.184939
vt 0.768052 0.184939
vt 0.768052 0.133134
vt 0.881654 0.428379
vt 0.818384 0.480184
vt 0.818384 0.428379
vt 0.424778 0.132188
vt 0.375913 0.309457
vt 0.375913 0.132188
vt 0.777681 0.340353
vt 0.799670 0.369462
vt 0.791438 0.392158
vt 0.900367 0.155830
vt 0.818384 0.489813
vt 0.881654 0.480184
vt 0.881654 0.489813
vt 0.908599 0.133134
vt 0.881654 0.380850
vt 0.818384 0.380850
vt 0.881653 0.120300
vt 0.818384 0.144443
vt 0.818384 0.120300
vt 0.818384 0.404993
vt 0.818384 0.035480
vt 0.881653 0.035480
vt 0.881653 0.144443
vt 0.768052 0.392158
vt 0.768052 0.340353
vt 0.875211 0.204303
vt 0.875211 0.320989
vt 0.985626 0.184939
vt 0.881653 0.096914
vt 0.881654 0.404993
vt 0.931985 0.133134
vt 0.931985 0.184939
vt 0.791438 0.133134
vt 0.699975 0.309457
vt 0.586809 0.132188
vt 0.699975 0.132188
vt 0.537944 0.309457
vt 0.537944 0.132188
vt 0.824826 0.204303
vt 0.799670 0.155830
vt 0.149703 0.417031
vt 0.604846 0.417031
vt 0.149703 0.530198
vt 0.653711 0.417031
vt 0.604846 0.530198
vt 0.100838 0.530198
vt 0.100838 0.417031
vt 0.039325 0.321537
vt 0.908600 0.392158
vt 0.202210 0.309457
vt 0.040179 0.309457
vt 0.039324 0.991250
vt 0.745983 0.960491
vt 0.364241 0.309457
vt 0.424778 0.309457
vt 0.985626 0.340353
vt 0.586809 0.309457
vn 0.6931 0.3783 -0.6135
vn 0.5773 -0.5773 0.5773
vn 0.5773 -0.5773 -0.5773
vn 0.2145 0.7301 -0.6488
vn -0.2145 0.7301 0.6488
vn 0.2145 0.7301 0.6488
vn 0.6931 0.3783 0.6135
vn -0.2145 0.7301 -0.6488
vn -0.5773 -0.5773 -0.5773
vn -0.5773 -0.5773 0.5773
vn -0.5979 0.4601 0.6564
vn -0.7989 0.4519 0.3968
vn -0.9045 -0.3015 -0.3015
vn -0.6931 0.3783 -0.6135
vn 0.9045 -0.3015 -0.3015
vn 0.5979 0.4601 0.6564
vn 0.5979 0.4601 -0.6564
vn 0.9045 -0.3015 0.3015
vn 0.7989 0.4519 -0.3968
vn -0.6067 0.6791 0.4132
vn -0.7989 0.4519 -0.3968
vn -0.9045 -0.3015 0.3015
vn -0.6067 0.6791 -0.4132
vn -0.5979 0.4601 -0.6564
vn 0.3015 0.9045 0.3015
vn -0.3015 0.9045 0.3015
vn -0.3015 0.9045 -0.3015
vn 0.3015 -0.9045 -0.3015
vn 0.3015 0.9045 -0.3015
vn -0.3015 -0.9045 0.3015
vn 0.6067 0.6791 -0.4132
vn 0.7989 0.4519 0.3968
vn -0.6931 0.3783 0.6135
vn -0.5775 0.5783 0.5762
vn -0.5771 -0.5763 0.5785
vn -0.5773 0.5773 -0.5773
vn 0.5773 0.5773 -0.5773
vn 0.5771 -0.5763 0.5785
vn 0.5775 0.5783 0.5762
vn 0.3015 -0.9045 0.3015
vn 0.6067 0.6791 0.4132
vn -0.3015 -0.9045 -0.3015
s 1
f 1/1/1 4/2/2 2/3/3
f 5/4/4 40/5/5 6/6/6
f 1/1/1 6/6/6 3/7/7
f 39/8/8 2/9/3 28/10/9
f 1/11/1 2/9/3 5/4/4
f 31/12/10 2/9/3 4/13/2
f 3/14/7 6/6/6 4/15/2
s 2
f 25/16/11 37/17/12 7/18/13
s 1
f 31/19/10 27/20/14 28/21/9
s 2
f 84/22/15 22/23/16 29/24/2
f 33/25/3 23/26/17 83/27/18
f 23/26/17 32/28/19 83/27/18
f 37/17/12 12/29/20 7/18/13
f 35/30/21 81/31/22 11/32/23
f 81/31/22 24/33/24 36/34/9
f 12/29/20 14/35/25 21/36/26
f 19/37/27 17/38/28 15/39/29
f 17/38/28 14/40/25 15/39/29
f 20/41/30 19/37/27 21/42/26
f 34/43/10 25/16/11 7/18/13
f 84/22/15 29/24/2 82/44/3
f 35/45/21 23/46/17 24/47/24
f 81/31/22 12/29/20 11/32/23
f 22/48/16 34/49/10 29/50/2
f 7/18/13 83/51/18 84/52/15
f 14/35/25 38/53/31 15/54/29
f 81/31/22 36/34/9 10/55/10
f 26/56/32 12/29/20 37/57/12
f 82/58/3 7/59/13 84/60/15
f 24/47/24 33/61/3 36/62/9
s 1
f 40/5/5 27/20/14 30/63/33
f 31/64/10 40/5/5 30/65/33
f 31/64/10 4/15/2 40/5/5
f 2/9/3 39/8/8 5/4/4
f 27/66/14 39/8/8 28/10/9
s 2
f 22/48/16 37/57/12 25/67/11
f 11/32/23 32/68/19 35/45/21
f 26/69/32 22/23/16 84/22/15
f 19/70/27 38/53/31 11/32/23
f 81/71/22 8/72/2 83/73/18
f 50/74/34 47/75/9 48/76/35
f 43/77/3 49/78/36 45/79/37
f 44/80/38 45/79/37 46/81/39
f 48/82/35 46/81/39 50/74/34
f 50/74/34 45/79/37 49/78/36
f 67/83/40 43/84/3 44/85/38
s 1
f 40/5/5 4/15/2 6/6/6
s 2
f 26/69/32 84/22/15 13/86/41
f 81/31/22 35/30/21 24/33/24
f 14/87/25 20/41/30 21/42/26
f 33/61/3 10/88/10 36/62/9
f 7/18/13 9/89/9 34/43/10
f 32/28/19 38/53/31 83/27/18
f 71/90/20 64/91/27 72/92/23
f 83/27/18 8/93/2 33/25/3
f 84/22/15 38/53/31 13/86/41
f 82/58/3 34/49/10 9/94/9
f 12/29/20 19/70/27 11/32/23
f 78/95/3 53/96/10 74/97/9
f 80/98/15 41/99/31 70/100/41
f 79/101/18 75/102/2 54/103/3
f 55/104/19 41/99/31 79/101/18
f 76/105/13 74/106/9 53/107/10
f 54/108/3 73/109/10 51/110/9
f 69/111/25 63/112/30 62/113/26
f 77/114/22 52/115/21 59/116/24
f 57/117/32 80/98/15 70/100/41
f 77/118/22 75/119/2 79/120/18
f 64/91/27 41/99/31 72/92/23
f 57/117/32 61/121/16 80/98/15
f 72/92/23 55/122/19 52/123/21
f 61/124/16 42/125/12 58/126/11
f 59/127/24 54/108/3 51/110/9
f 78/95/3 76/128/13 80/129/15
f 57/130/32 71/90/20 42/125/12
f 77/114/22 51/131/9 73/132/10
f 69/133/25 41/99/31 68/134/29
f 76/135/13 79/101/18 80/98/15
f 61/124/16 53/96/10 56/136/2
f 77/114/22 71/90/20 72/92/23
f 52/123/21 60/137/17 59/127/24
f 80/98/15 56/138/2 78/139/3
f 53/107/10 58/140/11 76/105/13
f 63/141/30 64/142/27 62/143/26
f 66/144/28 69/111/25 68/145/29
f 64/142/27 66/144/28 68/145/29
f 71/90/20 69/133/25 62/146/26
f 77/114/22 59/116/24 51/131/9
f 52/115/21 77/114/22 72/92/23
f 42/147/12 71/90/20 76/105/13
f 17/148/28 43/84/3 65/149/42
f 65/149/42 16/150/40 17/148/28
f 65/149/42 43/84/3 66/151/28
f 44/85/38 16/150/40 63/152/30
f 48/82/35 20/153/30 16/150/40
f 18/154/42 48/82/35 47/155/9
f 67/83/40 44/85/38 63/152/30
f 17/148/28 18/154/42 47/155/9
f 60/156/17 55/104/19 79/101/18
f 54/103/3 60/156/17 79/101/18
f 80/98/15 61/121/16 56/138/2
f 58/140/11 42/147/12 76/105/13
s 1
f 1/1/1 3/7/7 4/2/2
f 5/4/4 39/8/8 40/5/5
f 1/1/1 5/4/4 6/6/6
f 31/12/10 28/10/9 2/9/3
f 31/19/10 30/63/33 27/20/14
s 2
f 12/29/20 13/86/41 14/35/25
f 19/37/27 18/157/42 17/38/28
f 17/38/28 16/158/40 14/40/25
f 20/41/30 18/157/42 19/37/27
f 35/45/21 32/68/19 23/46/17
f 81/31/22 7/18/13 12/29/20
f 22/48/16 25/67/11 34/49/10
f 7/18/13 81/31/22 83/51/18
f 14/35/25 13/86/41 38/53/31
f 26/56/32 13/86/41 12/29/20
f 82/58/3 9/94/9 7/59/13
f 24/47/24 23/46/17 33/61/3
s 1
f 40/5/5 39/8/8 27/20/14
s 2
f 22/48/16 26/56/32 37/57/12
f 11/32/23 38/53/31 32/68/19
f 19/70/27 15/54/29 38/53/31
f 81/71/22 10/88/10 8/72/2
f 50/74/34 49/78/36 47/75/9
f 43/77/3 47/159/9 49/78/36
f 44/80/38 43/160/3 45/79/37
f 48/82/35 44/85/38 46/81/39
f 50/74/34 46/81/39 45/79/37
f 67/83/40 66/151/28 43/84/3
f 14/87/25 16/161/40 20/41/30
f 33/61/3 8/72/2 10/88/10
f 71/90/20 62/146/26 64/91/27
f 84/22/15 83/27/18 38/53/31
f 82/58/3 29/50/2 34/49/10
f 12/29/20 21/36/26 19/70/27
f 78/95/3 56/136/2 53/96/10
f 80/98/15 79/101/18 41/99/31
f 54/108/3 75/119/2 73/109/10
f 69/111/25 67/162/40 63/112/30
f 77/118/22 73/109/10 75/119/2
f 64/91/27 68/134/29 41/99/31
f 72/92/23 41/99/31 55/122/19
f 61/124/16 57/130/32 42/125/12
f 59/127/24 60/137/17 54/108/3
f 78/95/3 74/97/9 76/128/13
f 57/130/32 70/100/41 71/90/20
f 69/133/25 70/100/41 41/99/31
f 76/135/13 77/163/22 79/101/18
f 61/124/16 58/126/11 53/96/10
f 77/114/22 76/105/13 71/90/20
f 52/123/21 55/122/19 60/137/17
f 63/141/30 65/164/42 64/142/27
f 66/144/28 67/162/40 69/111/25
f 64/142/27 65/164/42 66/144/28
f 71/90/20 70/100/41 69/133/25
f 17/148/28 47/155/9 43/84/3
f 65/149/42 63/152/30 16/150/40
f 44/85/38 48/82/35 16/150/40
f 18/154/42 20/153/30 48/82/35
